PathFileType	4	(X/Y/Z)	E:\Qualisys_Data\Carbon_Farble_Plate\Data\Amateur_Runner\S14\T3\S14T3V23_c3d.trc
DataRate	CameraRate	NumFrames	NumMarkers	Units	OrigDataRate	OrigDataStartFrame	OrigNumFrames
200.000000	200.000000	4	39	mm	200.000000	214	286
Frame#	Time	LSHO			RSHO			LICST			RICST			LASIS			LHEEL			RASIS			LTROC			RTROC			SACR			LTH1			LSK4			LTH2			LTH3			RHM5			LSK2			LTH4			RTH1			LTOE			RTH2			RTH3			RTH4			LLEP			RLEP			LSK1			LSK3			RSK1			LHM5			RSK2			LFT1			RSK3			RSK4			LLME			RLME			RTOE			RHEEL			RFT1			RFT2			LFT2			
		X1	Y1	Z1	X2	Y2	Z2	X3	Y3	Z3	X4	Y4	Z4	X5	Y5	Z5	X6	Y6	Z6	X7	Y7	Z7	X8	Y8	Z8	X9	Y9	Z9	X10	Y10	Z10	X11	Y11	Z11	X12	Y12	Z12	X13	Y13	Z13	X14	Y14	Z14	X15	Y15	Z15	X16	Y16	Z16	X17	Y17	Z17	X18	Y18	Z18	X19	Y19	Z19	X20	Y20	Z20	X21	Y21	Z21	X22	Y22	Z22	X23	Y23	Z23	X24	Y24	Z24	X25	Y25	Z25	X26	Y26	Z26	X27	Y27	Z27	X28	Y28	Z28	X29	Y29	Z29	X30	Y30	Z30	X31	Y31	Z31	X32	Y32	Z32	X33	Y33	Z33	X34	Y34	Z34	X35	Y35	Z35	X36	Y36	Z36	X37	Y37	Z37	X38	Y38	Z38	X39	Y39	Z39	

215	1.07	1496.656860351562	1415.015502929688	-556.1347045898438	1592.354736328125	1417.01025390625	-281.0289306640625	1517.774169921875	958.2147827148438	-516.6416625976562	1555.699829101562	976.706298828125	-244.9503173828125	1561.473022460938	909.3622436523438	-490.4246520996094	1648.734008789062	66.1735610961914	-391.3829650878906	1576.666381835938	930.5375366210938	-260.8193969726562	1439.630493164062	834.0249633789062	-530.387939453125	1422.22998046875	866.649169921875	-194.8663330078125	1393.78564453125	962.7387084960938	-380.6751708984375	1588.859985351562	632.7971801757812	-529.573486328125	1621.025390625	263.2204284667969	-467.8997497558594	1524.18505859375	604.9605712890625	-497.43994140625	1641.370971679688	553.1199340820312	-500.6334228515625	923.5586547851562	282.7129821777344	-200.6120910644531	1605.427856445312	359.7879333496094	-486.0632934570312	1571.827514648438	520.8204345703125	-479.6497497558594	1485.459106445312	625.2525634765625	-196.3840026855469	1904.398559570312	105.6338958740234	-438.2474060058594	1411.423950195312	649.8812255859375	-187.2673797607422	1457.07958984375	528.4617309570312	-211.8664245605469	1377.5263671875	555.0348510742188	-199.91748046875	1630.891723632812	463.5420532226562	-492.5730285644531	1374.780883789062	487.3262939453125	-199.1652069091797	1686.425537109375	373.276611328125	-490.1482543945312	1701.354614257812	273.4040222167969	-474.843017578125	1270.0166015625	422.4589538574219	-197.3290710449219	1833.254516601562	70.88823699951172	-489.7869262695312	1244.592529296875	504.2572631835938	-203.7409515380859	1665.95947265625	36.90560913085938	-367.2013854980469	1170.040405273438	397.7048950195312	-214.8777313232422	1153.749633789062	475.2673034667969	-219.5932312011719	1695.653076171875	93.49761962890624	-451.7030334472656	997.9254760742188	407.2546997070312	-241.5643005371094	940.3043212890624	201.1277923583984	-251.5734252929688	977.29638671875	450.0099792480469	-309.7903137207031	954.3817138671876	436.0032348632812	-337.1319580078125	955.4595947265624	459.6556701660156	-288.2207641601562	1653.952514648438	37.00281143188477	-419.3483581542969
216	1.075	1518.949951171875	1409.267211914062	-558.5348510742188	1612.241333007812	1413.1533203125	-281.6401977539062	1538.097900390625	953.8029174804688	-517.3250122070312	1576.0546875	972.3744506835938	-245.0157775878906	1581.46337890625	906.3916015625	-492.9067077636719	1652.541870117188	66.02385711669922	-390.7057495117188	1597.481323242188	926.538818359375	-261.2855834960938	1458.67333984375	829.8242797851562	-529.7088012695312	1444.198608398438	860.6712036132812	-195.2616119384766	1413.79736328125	958.0779418945312	-380.4871826171875	1610.16943359375	630.34765625	-527.98974609375	1635.157592773438	262.2148742675781	-467.5862426757812	1545.20654296875	601.2938842773438	-497.7596130371094	1662.41650390625	550.2948608398438	-500.4148254394531	948.9004516601562	286.3948059082031	-202.9172821044922	1624.064697265625	359.2742004394531	-486.0628662109375	1592.890258789062	517.312255859375	-479.6637268066406	1510.744506835938	620.5347290039062	-196.6066131591797	1910.876220703125	89.13849639892578	-434.313720703125	1436.40625	643.6441040039062	-186.9004058837891	1484.450927734375	523.546875	-211.0621795654297	1404.408569335938	548.3074951171875	-199.4404296875	1652.336303710938	461.3162231445312	-493.4127807617188	1402.669189453125	480.0017395019531	-199.4092102050781	1705.7294921875	369.2507019042969	-489.1168823242188	1715.878540039062	268.9718933105469	-473.4052734375	1297.808227539062	418.1383666992188	-197.1960754394531	1837.697143554688	61.48551559448242	-487.7656555175781	1273.687744140625	500.247802734375	-203.3489074707031	1667.873657226562	35.66435623168945	-367.3153381347656	1197.447143554688	395.3722839355469	-215.7322387695312	1182.588989257812	473.1311950683594	-219.8362121582031	1700.971557617188	91.29749298095705	-451.2584228515625	1025.75927734375	409.3733215332031	-243.3889923095703	965.3396606445312	204.2744445800781	-253.2601470947266	1006.417846679688	452.6689453125	-312.1563720703125	983.1964721679688	438.4390258789062	-339.57470703125	983.964111328125	462.1986389160156	-290.5962219238281	1656.555053710938	36.84200668334961	-418.9815368652344
217	1.08	1540.7353515625	1403.81494140625	-560.6339111328125	1631.779663085938	1408.78564453125	-281.9457702636719	1557.201904296875	950.7681274414062	-518.583740234375	1596.648315429688	968.2228393554688	-245.7763671875	1601.993408203125	902.9636840820312	-494.2210083007812	1656.758911132812	66.4870834350586	-390.8710021972656	1618.060546875	922.1895751953124	-262.3396911621094	1477.425170898438	825.5247192382812	-528.9389038085938	1466.255615234375	854.90478515625	-195.2051086425781	1433.056884765625	953.4065551757812	-379.8952331542969	1631.916625976562	628.4043579101562	-526.8768310546875	1649.499877929688	261.9356384277344	-466.874267578125	1566.516479492188	598.177001953125	-498.2276000976562	1684.17822265625	548.1988525390625	-500.4172668457031	975.4839477539062	288.9997253417969	-204.3499908447266	1642.86669921875	359.6577758789062	-486.8731994628906	1615.021850585938	515.0247192382812	-480.6181945800781	1536.345458984375	615.6761474609375	-196.9491577148438	1915.812255859375	76.64964294433594	-433.4546203613281	1461.884765625	637.1278686523438	-187.1533813476562	1511.94921875	517.6659545898438	-211.2181854248047	1431.228881835938	541.6272583007812	-198.8565063476562	1674.26220703125	459.3411254882812	-493.9584655761719	1431.02490234375	474.187255859375	-197.9254760742188	1725.045532226562	365.3818054199219	-488.6633911132812	1730.350341796875	264.9195556640625	-472.0380249023438	1325.988647460938	413.7391052246094	-197.2544097900391	1841.147094726562	56.36753845214844	-488.3886108398438	1303.60791015625	496.2045288085938	-202.5797576904297	1670.212890625	36.07695770263672	-367.195068359375	1225.30126953125	393.1877136230469	-215.9405517578125	1212.190063476562	471.1110534667969	-220.0197601318359	1705.9541015625	89.97605895996094	-450.25732421875	1054.382446289062	411.0746459960938	-244.7422485351562	990.955810546875	206.5968933105469	-254.9862823486328	1035.830200195312	454.5095520019531	-314.0657043457031	1012.393981933594	440.5153198242188	-341.1695861816406	1013.272399902344	464.9892272949219	-292.7433776855469	1658.425048828125	38.425537109375	-418.7799072265625
218	1.085	1563.142456054688	1398.0703125	-562.8512573242188	1651.24560546875	1404.481201171875	-282.0047912597656	1575.52099609375	946.8043212890624	-519.8018188476562	1617.1689453125	963.4635620117188	-246.2143859863281	1621.0869140625	901.4320678710938	-494.899658203125	1659.762939453125	68.99578857421875	-389.4393005371094	1638.650024414062	918.04443359375	-263.6112976074219	1496.197998046875	821.1095581054688	-528.81005859375	1487.8759765625	848.5929565429688	-195.2489929199219	1452.4013671875	948.7283325195312	-379.4323425292969	1653.228637695312	627.1444091796875	-527.1831665039062	1663.81640625	263.262939453125	-466.7891235351562	1588.105590820312	595.8963623046875	-499.3688659667969	1706.40185546875	546.611572265625	-501.1019287109375	1003.155517578125	291.5220031738281	-206.424072265625	1662.32080078125	360.7482604980469	-487.8121643066406	1637.51513671875	513.0519409179688	-481.4957580566406	1562.04833984375	611.0621337890625	-197.4254608154297	1919.464111328125	73.20185089111328	-433.1321411132812	1487.26953125	631.036865234375	-186.8000946044922	1539.95068359375	512.8404541015625	-211.1927795410156	1458.660888671875	534.7169189453125	-198.1868438720703	1697.008422851562	458.6034851074219	-495.1632690429688	1460.26220703125	468.0209045410156	-198.3382568359375	1744.722412109375	362.6744384765625	-488.599853515625	1744.592407226562	261.8840637207031	-471.4470520019531	1354.64013671875	408.9220886230469	-197.505126953125	1844.389526367188	56.61666488647461	-490.4166259765625	1333.689208984375	491.9527587890625	-202.2105712890625	1672.448852539062	36.8684196472168	-366.5061645507812	1253.748046875	390.2526245117188	-217.2725524902344	1242.037475585938	468.6275329589844	-220.3155364990234	1711.336791992188	89.9216079711914	-449.2142639160156	1083.318237304688	412.1614379882812	-246.4409332275391	1018.033203125	208.770751953125	-256.7005920410156	1065.67822265625	456.0904235839844	-315.7195434570312	1042.265014648438	442.5675659179688	-343.5750427246094	1042.833618164062	466.0685729980469	-294.4139099121094	1660.216186523438	40.14961242675781	-418.8403930664062
